<svg width="66" height="66" viewBox="0 0 66 66" fill="none" xmlns="http://www.w3.org/2000/svg">
<path fill-rule="evenodd" clip-rule="evenodd" d="M40.5 47C41.9146 45.17 44.0214 42.2938 45.6852 40H35.5C34.1193 40 33 38.8807 33 37.5C33 36.1193 34.1193 35 35.5 35H46H48.8219H55.2813H56V40V55.5C56 56.8807 54.8807 58 53.5 58C52.1193 58 51 56.8807 51 55.5V43.492C46.2038 51.4469 39.8743 58.6247 36.0691 62.6388C34.2411 64.5672 31.2589 64.5672 29.4309 62.6388C22.6837 55.5211 8 38.4567 8 24.75C8 18.1859 10.6076 11.8906 15.2491 7.24911C19.8906 2.60758 26.1859 0 32.75 0C39.3141 0 45.6094 2.60758 50.2509 7.24911C52.3894 9.38765 54.0962 11.8773 55.3151 14.5825C55.2166 15.5718 54.7971 16.5165 54.0991 17.2609L54.0214 17.3438C53.9239 17.4478 53.8191 17.5447 53.7078 17.6337L53.4077 17.8738C52.5694 18.5445 51.3933 18.5955 50.5 18L49.0081 16.9156C48.1911 15.4684 47.1701 14.1265 45.9636 12.9337C42.5255 9.53459 37.8623 7.625 33 7.625C28.1377 7.625 23.4745 9.53459 20.0364 12.9337C16.5982 16.3328 15.5 20.943 15.5 25.75C15.5 28.8748 17.5567 34.1104 19.5 38C21.1366 41.2792 22.7698 43.3662 24.8632 46.0411C25.2274 46.5065 25.6055 46.9897 26 47.5C29.9263 52.5482 36.2223 52.6589 40.0753 47.5545C40.2157 47.3685 40.3572 47.1836 40.5 47Z" fill="#CD4754"/>
</svg>
