<svg width="176" height="48" viewBox="0 0 176 48" fill="none" xmlns="http://www.w3.org/2000/svg">
<path fill-rule="evenodd" clip-rule="evenodd" d="M24.375 35.5727C25.4359 34.1876 27.016 32.0107 28.2639 30.2746H20.6422C19.5972 30.2746 18.75 29.4275 18.75 28.3824C18.75 27.3374 19.5972 26.4903 20.6422 26.4903L28.5 26.4903L36 26.4903V30.2746V42.0232C36 43.0587 35.1605 43.8982 34.125 43.8982C33.0895 43.8982 32.25 43.0587 32.25 42.0232V32.9176C28.9804 38.39 24.7609 43.3765 21.8764 46.5208C20.0683 48.4917 17.0567 48.4918 15.2486 46.5208C9.91052 40.702 0 28.5737 0 18.7324C0 13.7643 1.95569 8.9996 5.43683 5.48659C8.91797 1.97359 13.6394 0 18.5625 0C23.4856 0 28.207 1.97359 31.6882 5.48659C33.2929 7.10599 34.5734 8.99136 35.4877 11.04C35.4138 11.7863 35.0992 12.4992 34.5756 13.0628L34.5151 13.128C34.4426 13.206 34.3646 13.2787 34.2818 13.3456L34.055 13.5287C33.4278 14.0351 32.5438 14.0735 31.875 13.6236L30.7561 12.8028C30.1433 11.7075 29.3776 10.6918 28.4727 9.78907C25.8941 7.21641 22.3967 5.77111 18.75 5.77111C15.1032 5.77111 11.6059 7.21641 9.02725 9.78907C6.44863 12.3617 5.62497 15.851 5.62497 19.4893C5.62497 21.8543 7.16747 25.817 8.62497 28.7609C9.85242 31.2428 11.0773 32.8224 12.6474 34.8469C12.9205 35.1991 13.2041 35.5648 13.5 35.9511C16.437 39.7618 21.175 39.8445 24.0568 35.9918C24.162 35.8512 24.268 35.7115 24.375 35.5727Z" fill="white"/>
<path d="M64.1708 36.3195C62.0481 36.3195 60.2028 35.8395 58.6348 34.8795C57.0774 33.9088 55.8721 32.5382 55.0188 30.7675C54.1761 28.9968 53.7548 26.9062 53.7548 24.4955C53.7548 22.0422 54.1974 19.9248 55.0828 18.1435C55.9788 16.3515 57.2268 14.9702 58.8268 13.9995C60.4268 13.0288 62.2934 12.5435 64.4268 12.5435C65.8028 12.5435 67.0561 12.7622 68.1868 13.1995C69.3174 13.6368 70.2988 14.2342 71.1308 14.9915C71.9734 15.7488 72.6294 16.6075 73.0988 17.5675C73.5788 18.5168 73.8401 19.5035 73.8828 20.5275H68.9548C68.8161 19.7915 68.5388 19.1195 68.1228 18.5115C67.7174 17.9035 67.1948 17.4182 66.5548 17.0555C65.9148 16.6822 65.1681 16.4955 64.3148 16.4955C63.2908 16.4955 62.3628 16.7622 61.5308 17.2955C60.6988 17.8182 60.0428 18.6555 59.5628 19.8075C59.0828 20.9595 58.8428 22.4795 58.8428 24.3675C58.8428 25.8928 58.9974 27.1622 59.3068 28.1755C59.6268 29.1888 60.0534 29.9942 60.5868 30.5915C61.1201 31.1782 61.7281 31.5942 62.4108 31.8395C63.0934 32.0848 63.7921 32.2075 64.5068 32.2075C65.1894 32.2075 65.7974 32.0955 66.3308 31.8715C66.8748 31.6368 67.3388 31.3382 67.7228 30.9755C68.1068 30.6128 68.4108 30.2182 68.6348 29.7915C68.8588 29.3542 69.0028 28.9275 69.0668 28.5115L69.2428 27.1035H64.4588V23.8715L74.1388 23.9195V35.9995H70.9548V32.9755C70.5601 33.4982 70.0694 34.0208 69.4827 34.5435C68.9068 35.0555 68.1868 35.4822 67.3228 35.8235C66.4694 36.1542 65.4188 36.3195 64.1708 36.3195ZM85.604 36.3195C83.9827 36.3195 82.5693 35.9728 81.364 35.2795C80.1693 34.5862 79.2413 33.6048 78.58 32.3355C77.9293 31.0662 77.604 29.5622 77.604 27.8235C77.604 26.0848 77.9293 24.5648 78.58 23.2635C79.2413 21.9622 80.1693 20.9488 81.364 20.2235C82.5693 19.4982 83.988 19.1355 85.62 19.1355C87.252 19.1355 88.6653 19.4928 89.86 20.2075C91.0547 20.9115 91.9773 21.9142 92.628 23.2155C93.2787 24.5168 93.604 26.0528 93.604 27.8235C93.604 29.4875 93.284 30.9595 92.644 32.2395C92.0147 33.5088 91.1027 34.5062 89.908 35.2315C88.724 35.9568 87.2893 36.3195 85.604 36.3195ZM85.62 32.8475C86.4413 32.8475 87.1027 32.6075 87.604 32.1275C88.1053 31.6475 88.468 31.0182 88.692 30.2395C88.9267 29.4502 89.044 28.5915 89.044 27.6635C89.044 26.7888 88.9373 25.9622 88.724 25.1835C88.5213 24.4048 88.1693 23.7755 87.668 23.2955C87.1667 22.8155 86.484 22.5755 85.62 22.5755C84.7987 22.5755 84.132 22.8048 83.62 23.2635C83.1187 23.7115 82.7507 24.3248 82.516 25.1035C82.2813 25.8715 82.164 26.7248 82.164 27.6635C82.164 28.5275 82.2707 29.3595 82.484 30.1595C82.6973 30.9488 83.0547 31.5942 83.556 32.0955C84.0573 32.5968 84.7453 32.8475 85.62 32.8475ZM108.686 36.2875C107.47 36.2875 106.505 36.1435 105.79 35.8555C105.076 35.5675 104.548 35.1888 104.206 34.7195C103.865 34.2395 103.646 33.7115 103.55 33.1355C103.454 32.5488 103.406 31.9568 103.406 31.3595V12.2235H107.982V30.7835C107.982 31.3915 108.11 31.8875 108.366 32.2715C108.633 32.6448 109.129 32.8742 109.854 32.9595L110.638 33.0075V35.8875C110.318 35.9942 109.993 36.0848 109.662 36.1595C109.332 36.2448 109.006 36.2875 108.686 36.2875ZM120.729 36.3195C119.108 36.3195 117.694 35.9728 116.489 35.2795C115.294 34.5862 114.366 33.6048 113.705 32.3355C113.054 31.0662 112.729 29.5622 112.729 27.8235C112.729 26.0848 113.054 24.5648 113.705 23.2635C114.366 21.9622 115.294 20.9488 116.489 20.2235C117.694 19.4982 119.113 19.1355 120.745 19.1355C122.377 19.1355 123.79 19.4928 124.985 20.2075C126.18 20.9115 127.102 21.9142 127.753 23.2155C128.404 24.5168 128.729 26.0528 128.729 27.8235C128.729 29.4875 128.409 30.9595 127.769 32.2395C127.14 33.5088 126.228 34.5062 125.033 35.2315C123.849 35.9568 122.414 36.3195 120.729 36.3195ZM120.745 32.8475C121.566 32.8475 122.228 32.6075 122.729 32.1275C123.23 31.6475 123.593 31.0182 123.817 30.2395C124.052 29.4502 124.169 28.5915 124.169 27.6635C124.169 26.7888 124.062 25.9622 123.849 25.1835C123.646 24.4048 123.294 23.7755 122.793 23.2955C122.292 22.8155 121.609 22.5755 120.745 22.5755C119.924 22.5755 119.257 22.8048 118.745 23.2635C118.244 23.7115 117.876 24.3248 117.641 25.1035C117.406 25.8715 117.289 26.7248 117.289 27.6635C117.289 28.5275 117.396 29.3595 117.609 30.1595C117.822 30.9488 118.18 31.5942 118.681 32.0955C119.182 32.5968 119.87 32.8475 120.745 32.8475ZM138.932 19.1355C140.318 19.1355 141.513 19.4182 142.516 19.9835C143.529 20.5488 144.324 21.3115 144.9 22.2715C145.486 23.2315 145.822 24.3035 145.908 25.4875H142.02C141.945 25.0502 141.79 24.6182 141.556 24.1915C141.321 23.7542 140.99 23.3968 140.564 23.1195C140.137 22.8315 139.604 22.6875 138.964 22.6875C137.876 22.6875 136.99 23.1088 136.308 23.9515C135.636 24.7835 135.3 26.0528 135.3 27.7595C135.3 29.3702 135.63 30.6502 136.292 31.5995C136.953 32.5382 137.876 33.0075 139.06 33.0075C139.689 33.0075 140.212 32.8528 140.628 32.5435C141.054 32.2342 141.385 31.8662 141.62 31.4395C141.854 31.0022 142.004 30.5968 142.068 30.2235H145.86C145.785 31.3648 145.454 32.3995 144.868 33.3275C144.281 34.2448 143.481 34.9755 142.468 35.5195C141.465 36.0528 140.286 36.3195 138.932 36.3195C137.396 36.3195 136.025 35.9782 134.82 35.2955C133.614 34.6128 132.665 33.6368 131.972 32.3675C131.289 31.0875 130.948 29.5622 130.948 27.7915C130.948 26.0848 131.278 24.5808 131.94 23.2795C132.601 21.9782 133.529 20.9648 134.724 20.2395C135.929 19.5035 137.332 19.1355 138.932 19.1355ZM153.831 36.3195C152.775 36.3195 151.826 36.1222 150.983 35.7275C150.141 35.3328 149.474 34.7622 148.983 34.0155C148.493 33.2582 148.247 32.3408 148.247 31.2635C148.247 29.4502 148.925 28.0742 150.279 27.1355C151.634 26.1862 153.773 25.6955 156.695 25.6635L158.759 25.6315V24.6395C158.759 23.8822 158.535 23.3008 158.087 22.8955C157.65 22.4795 156.967 22.2768 156.039 22.2875C155.357 22.2982 154.706 22.4582 154.087 22.7675C153.479 23.0768 153.063 23.6155 152.839 24.3835H148.951C149.015 23.1888 149.362 22.2075 149.991 21.4395C150.621 20.6608 151.474 20.0848 152.551 19.7115C153.639 19.3275 154.871 19.1355 156.247 19.1355C157.943 19.1355 159.303 19.3488 160.327 19.7755C161.351 20.1915 162.093 20.7942 162.551 21.5835C163.01 22.3622 163.239 23.2902 163.239 24.3675V35.9995H159.335L158.951 33.1515C158.386 34.3462 157.677 35.1728 156.823 35.6315C155.981 36.0902 154.983 36.3195 153.831 36.3195ZM155.399 33.2475C155.826 33.2475 156.237 33.1728 156.631 33.0235C157.037 32.8635 157.394 32.6555 157.703 32.3995C158.023 32.1328 158.279 31.8342 158.471 31.5035C158.663 31.1728 158.759 30.8315 158.759 30.4795V28.0315L157.079 28.0635C156.301 28.0742 155.575 28.1702 154.903 28.3515C154.231 28.5222 153.687 28.8048 153.271 29.1995C152.866 29.5942 152.663 30.1275 152.663 30.7995C152.663 31.5675 152.93 32.1702 153.463 32.6075C153.997 33.0342 154.642 33.2475 155.399 33.2475ZM172.655 36.2875C171.439 36.2875 170.474 36.1435 169.759 35.8555C169.044 35.5675 168.516 35.1888 168.175 34.7195C167.834 34.2395 167.615 33.7115 167.519 33.1355C167.423 32.5488 167.375 31.9568 167.375 31.3595V12.2235H171.951V30.7835C171.951 31.3915 172.079 31.8875 172.335 32.2715C172.602 32.6448 173.098 32.8742 173.823 32.9595L174.607 33.0075V35.8875C174.287 35.9942 173.962 36.0848 173.631 36.1595C173.3 36.2448 172.975 36.2875 172.655 36.2875Z" fill="white"/>
</svg>
