<svg width="124" height="112" viewBox="0 0 124 112" fill="none" xmlns="http://www.w3.org/2000/svg">
<g clip-path="url(#clip0_6352_828)">
<path fill-rule="evenodd" clip-rule="evenodd" d="M69.5 47C70.9146 45.17 73.0214 42.2938 74.6852 40H64.5C63.1193 40 62 38.8807 62 37.5C62 36.1193 63.1193 35 64.5 35H75H77.8219H84.2813H85V40V55.5C85 56.8807 83.8807 58 82.5 58C81.1193 58 80 56.8807 80 55.5V43.492C75.2038 51.4469 68.8743 58.6247 65.0691 62.6388C63.2411 64.5672 60.2589 64.5672 58.4309 62.6388C51.6837 55.5211 37 38.4567 37 24.75C37 18.1859 39.6076 11.8906 44.2491 7.24911C48.8906 2.60758 55.1859 0 61.75 0C68.3141 0 74.6094 2.60758 79.2509 7.24911C81.3894 9.38765 83.0962 11.8773 84.3151 14.5825C84.2166 15.5718 83.7971 16.5165 83.0991 17.2609L83.0214 17.3438C82.9239 17.4478 82.8191 17.5447 82.7078 17.6337L82.4077 17.8738C81.5694 18.5445 80.3933 18.5955 79.5 18L78.0081 16.9156C77.1911 15.4684 76.1701 14.1265 74.9636 12.9337C71.5255 9.53459 66.8623 7.625 62 7.625C57.1377 7.625 52.4745 9.53459 49.0364 12.9337C45.5982 16.3328 44.5 20.943 44.5 25.75C44.5 28.8748 46.5567 34.1104 48.5 38C50.1366 41.2792 51.7698 43.3662 53.8632 46.0411C54.2274 46.5065 54.6055 46.9897 55 47.5C58.9263 52.5482 65.2223 52.6589 69.0753 47.5545C69.2157 47.3685 69.3572 47.1836 69.5 47Z" fill="#CD4754"/>
</g>
<path d="M12.1708 105.32C10.0481 105.32 8.20275 104.84 6.63475 103.88C5.07742 102.909 3.87208 101.539 3.01875 99.768C2.17608 97.9973 1.75475 95.9067 1.75475 93.496C1.75475 91.0427 2.19742 88.9253 3.08275 87.144C3.97875 85.352 5.22675 83.9707 6.82675 83C8.42675 82.0293 10.2934 81.544 12.4268 81.544C13.8028 81.544 15.0561 81.7627 16.1868 82.2C17.3174 82.6373 18.2988 83.2347 19.1308 83.992C19.9734 84.7493 20.6294 85.608 21.0988 86.568C21.5788 87.5173 21.8401 88.504 21.8828 89.528H16.9548C16.8161 88.792 16.5388 88.12 16.1228 87.512C15.7174 86.904 15.1948 86.4187 14.5548 86.056C13.9148 85.6827 13.1681 85.496 12.3148 85.496C11.2908 85.496 10.3628 85.7627 9.53075 86.296C8.69875 86.8187 8.04275 87.656 7.56275 88.808C7.08275 89.96 6.84275 91.48 6.84275 93.368C6.84275 94.8933 6.99742 96.1627 7.30675 97.176C7.62675 98.1893 8.05342 98.9947 8.58675 99.592C9.12008 100.179 9.72808 100.595 10.4108 100.84C11.0934 101.085 11.7921 101.208 12.5068 101.208C13.1894 101.208 13.7974 101.096 14.3308 100.872C14.8748 100.637 15.3388 100.339 15.7228 99.976C16.1068 99.6133 16.4108 99.2187 16.6348 98.792C16.8588 98.3547 17.0028 97.928 17.0668 97.512L17.2428 96.104H12.4588V92.872L22.1388 92.92V105H18.9548V101.976C18.5601 102.499 18.0694 103.021 17.4827 103.544C16.9068 104.056 16.1868 104.483 15.3228 104.824C14.4694 105.155 13.4188 105.32 12.1708 105.32ZM33.604 105.32C31.9827 105.32 30.5693 104.973 29.364 104.28C28.1693 103.587 27.2413 102.605 26.58 101.336C25.9293 100.067 25.604 98.5627 25.604 96.824C25.604 95.0853 25.9293 93.5653 26.58 92.264C27.2413 90.9627 28.1693 89.9493 29.364 89.224C30.5693 88.4987 31.988 88.136 33.62 88.136C35.252 88.136 36.6653 88.4933 37.86 89.208C39.0547 89.912 39.9773 90.9147 40.628 92.216C41.2787 93.5173 41.604 95.0533 41.604 96.824C41.604 98.488 41.284 99.96 40.644 101.24C40.0147 102.509 39.1027 103.507 37.908 104.232C36.724 104.957 35.2893 105.32 33.604 105.32ZM33.62 101.848C34.4413 101.848 35.1027 101.608 35.604 101.128C36.1053 100.648 36.468 100.019 36.692 99.24C36.9267 98.4507 37.044 97.592 37.044 96.664C37.044 95.7893 36.9373 94.9627 36.724 94.184C36.5213 93.4053 36.1693 92.776 35.668 92.296C35.1667 91.816 34.484 91.576 33.62 91.576C32.7987 91.576 32.132 91.8053 31.62 92.264C31.1187 92.712 30.7507 93.3253 30.516 94.104C30.2813 94.872 30.164 95.7253 30.164 96.664C30.164 97.528 30.2707 98.36 30.484 99.16C30.6973 99.9493 31.0547 100.595 31.556 101.096C32.0573 101.597 32.7453 101.848 33.62 101.848ZM56.6863 105.288C55.4703 105.288 54.5049 105.144 53.7903 104.856C53.0756 104.568 52.5476 104.189 52.2063 103.72C51.8649 103.24 51.6463 102.712 51.5503 102.136C51.4543 101.549 51.4062 100.957 51.4062 100.36V81.224H55.9823V99.784C55.9823 100.392 56.1103 100.888 56.3663 101.272C56.6329 101.645 57.1289 101.875 57.8542 101.96L58.6383 102.008V104.888C58.3183 104.995 57.9929 105.085 57.6623 105.16C57.3316 105.245 57.0063 105.288 56.6863 105.288ZM68.729 105.32C67.1077 105.32 65.6943 104.973 64.489 104.28C63.2943 103.587 62.3663 102.605 61.705 101.336C61.0543 100.067 60.729 98.5627 60.729 96.824C60.729 95.0853 61.0543 93.5653 61.705 92.264C62.3663 90.9627 63.2943 89.9493 64.489 89.224C65.6943 88.4987 67.113 88.136 68.745 88.136C70.377 88.136 71.7903 88.4933 72.985 89.208C74.1797 89.912 75.1023 90.9147 75.753 92.216C76.4037 93.5173 76.729 95.0533 76.729 96.824C76.729 98.488 76.409 99.96 75.769 101.24C75.1397 102.509 74.2277 103.507 73.033 104.232C71.849 104.957 70.4143 105.32 68.729 105.32ZM68.745 101.848C69.5663 101.848 70.2277 101.608 70.729 101.128C71.2303 100.648 71.593 100.019 71.817 99.24C72.0517 98.4507 72.169 97.592 72.169 96.664C72.169 95.7893 72.0623 94.9627 71.849 94.184C71.6463 93.4053 71.2943 92.776 70.793 92.296C70.2917 91.816 69.609 91.576 68.745 91.576C67.9237 91.576 67.257 91.8053 66.745 92.264C66.2437 92.712 65.8757 93.3253 65.641 94.104C65.4063 94.872 65.289 95.7253 65.289 96.664C65.289 97.528 65.3957 98.36 65.609 99.16C65.8223 99.9493 66.1797 100.595 66.681 101.096C67.1823 101.597 67.8703 101.848 68.745 101.848ZM86.9318 88.136C88.3184 88.136 89.5131 88.4187 90.5158 88.984C91.5291 89.5493 92.3238 90.312 92.8998 91.272C93.4864 92.232 93.8224 93.304 93.9078 94.488H90.0198C89.9451 94.0507 89.7904 93.6187 89.5558 93.192C89.3211 92.7547 88.9904 92.3973 88.5638 92.12C88.1371 91.832 87.6038 91.688 86.9638 91.688C85.8758 91.688 84.9904 92.1093 84.3078 92.952C83.6358 93.784 83.2998 95.0533 83.2998 96.76C83.2998 98.3707 83.6304 99.6507 84.2918 100.6C84.9531 101.539 85.8758 102.008 87.0598 102.008C87.6891 102.008 88.2118 101.853 88.6278 101.544C89.0544 101.235 89.3851 100.867 89.6198 100.44C89.8544 100.003 90.0038 99.5973 90.0678 99.224H93.8598C93.7851 100.365 93.4544 101.4 92.8678 102.328C92.2811 103.245 91.4811 103.976 90.4678 104.52C89.4651 105.053 88.2864 105.32 86.9318 105.32C85.3958 105.32 84.0251 104.979 82.8198 104.296C81.6144 103.613 80.6651 102.637 79.9718 101.368C79.2891 100.088 78.9478 98.5627 78.9478 96.792C78.9478 95.0853 79.2784 93.5813 79.9398 92.28C80.6011 90.9787 81.5291 89.9653 82.7238 89.24C83.9291 88.504 85.3318 88.136 86.9318 88.136ZM101.831 105.32C100.775 105.32 99.8259 105.123 98.9833 104.728C98.1406 104.333 97.4739 103.763 96.9833 103.016C96.4926 102.259 96.2473 101.341 96.2473 100.264C96.2473 98.4507 96.9246 97.0747 98.2793 96.136C99.6339 95.1867 101.773 94.696 104.695 94.664L106.759 94.632V93.64C106.759 92.8827 106.535 92.3013 106.087 91.896C105.65 91.48 104.967 91.2773 104.039 91.288C103.357 91.2987 102.706 91.4587 102.087 91.768C101.479 92.0773 101.063 92.616 100.839 93.384H96.9513C97.0153 92.1893 97.3619 91.208 97.9913 90.44C98.6206 89.6613 99.4739 89.0853 100.551 88.712C101.639 88.328 102.871 88.136 104.247 88.136C105.943 88.136 107.303 88.3493 108.327 88.776C109.351 89.192 110.093 89.7947 110.551 90.584C111.01 91.3627 111.239 92.2907 111.239 93.368V105H107.335L106.951 102.152C106.386 103.347 105.677 104.173 104.823 104.632C103.981 105.091 102.983 105.32 101.831 105.32ZM103.399 102.248C103.826 102.248 104.237 102.173 104.631 102.024C105.037 101.864 105.394 101.656 105.703 101.4C106.023 101.133 106.279 100.835 106.471 100.504C106.663 100.173 106.759 99.832 106.759 99.48V97.032L105.079 97.064C104.301 97.0747 103.575 97.1707 102.903 97.352C102.231 97.5227 101.687 97.8053 101.271 98.2C100.866 98.5947 100.663 99.128 100.663 99.8C100.663 100.568 100.93 101.171 101.463 101.608C101.997 102.035 102.642 102.248 103.399 102.248ZM120.655 105.288C119.439 105.288 118.474 105.144 117.759 104.856C117.044 104.568 116.516 104.189 116.175 103.72C115.834 103.24 115.615 102.712 115.519 102.136C115.423 101.549 115.375 100.957 115.375 100.36V81.224H119.951V99.784C119.951 100.392 120.079 100.888 120.335 101.272C120.602 101.645 121.098 101.875 121.823 101.96L122.607 102.008V104.888C122.287 104.995 121.962 105.085 121.631 105.16C121.3 105.245 120.975 105.288 120.655 105.288Z" fill="#CD4754"/>
<defs>
<clipPath id="clip0_6352_828">
<rect width="66" height="66" fill="white" transform="translate(29)"/>
</clipPath>
</defs>
</svg>
