<svg width="36" height="48" viewBox="0 0 36 48" fill="none" xmlns="http://www.w3.org/2000/svg">
<path fill-rule="evenodd" clip-rule="evenodd" d="M24.375 35.5727C25.4359 34.1876 27.016 32.0107 28.2639 30.2746H20.6422C19.5972 30.2746 18.75 29.4275 18.75 28.3824C18.75 27.3374 19.5972 26.4903 20.6422 26.4903L28.5 26.4903L36 26.4903V30.2746V42.0232C36 43.0587 35.1605 43.8982 34.125 43.8982C33.0895 43.8982 32.25 43.0587 32.25 42.0232V32.9176C28.9804 38.39 24.7609 43.3765 21.8764 46.5208C20.0683 48.4917 17.0567 48.4918 15.2486 46.5208C9.91052 40.702 0 28.5737 0 18.7324C0 13.7643 1.95569 8.9996 5.43683 5.48659C8.91797 1.97359 13.6394 0 18.5625 0C23.4856 0 28.207 1.97359 31.6882 5.48659C33.2929 7.10599 34.5734 8.99136 35.4877 11.04C35.4138 11.7863 35.0992 12.4992 34.5756 13.0628L34.5151 13.128C34.4426 13.206 34.3646 13.2787 34.2818 13.3456L34.055 13.5287C33.4278 14.0351 32.5438 14.0735 31.875 13.6236L30.7561 12.8028C30.1433 11.7075 29.3776 10.6918 28.4727 9.78907C25.8941 7.21641 22.3967 5.77111 18.75 5.77111C15.1032 5.77111 11.6059 7.21641 9.02725 9.78907C6.44863 12.3617 5.62497 15.851 5.62497 19.4893C5.62497 21.8543 7.16747 25.817 8.62497 28.7609C9.85242 31.2428 11.0773 32.8224 12.6474 34.8469C12.9205 35.1991 13.2041 35.5648 13.5 35.9511C16.437 39.7618 21.175 39.8445 24.0568 35.9918C24.162 35.8512 24.268 35.7115 24.375 35.5727Z" fill="white"/>
</svg>
