<svg width="124" height="94" viewBox="0 0 124 94" fill="none" xmlns="http://www.w3.org/2000/svg">
<path fill-rule="evenodd" clip-rule="evenodd" d="M68.375 35.5717C69.4359 34.1866 71.016 32.0097 72.2639 30.2736H64.6422C63.5972 30.2736 62.75 29.4265 62.75 28.3815C62.75 27.3365 63.5972 26.4893 64.6422 26.4893L72.5 26.4893L80 26.4893V30.2736V42.0222C80 43.0577 79.1605 43.8972 78.125 43.8972C77.0895 43.8972 76.25 43.0577 76.25 42.0222V32.9166C72.9804 38.389 68.7609 43.3756 65.8764 46.5198C64.0683 48.4908 61.0567 48.4908 59.2486 46.5198C53.9105 40.701 44 28.5727 44 18.7314C44 13.7633 45.9557 8.99862 49.4368 5.48562C52.918 1.97261 57.6394 -0.000976562 62.5625 -0.000976562C67.4856 -0.000976562 72.207 1.97261 75.6882 5.48562C77.2929 7.10502 78.5734 8.99039 79.4877 11.0391C79.4138 11.7853 79.0992 12.4982 78.5756 13.0619L78.5151 13.127C78.4426 13.205 78.3646 13.2777 78.2818 13.3446L78.055 13.5277C77.4278 14.0341 76.5438 14.0726 75.875 13.6226L74.7561 12.8018C74.1433 11.7065 73.3776 10.6909 72.4727 9.78809C69.8941 7.21544 66.3967 5.77013 62.75 5.77013C59.1032 5.77013 55.6059 7.21544 53.0273 9.78809C50.4486 12.3608 49.625 15.85 49.625 19.4883C49.625 21.8533 51.1675 25.816 52.625 28.7599C53.8524 31.2418 55.0773 32.8214 56.6474 34.8459C56.9205 35.1982 57.2041 35.5639 57.5 35.9501C60.437 39.7608 65.175 39.8435 68.0568 35.9909C68.162 35.8503 68.268 35.7105 68.375 35.5717Z" fill="white"/>
<path d="M12.1708 87.318C10.0481 87.318 8.20275 86.838 6.63475 85.878C5.07742 84.9074 3.87208 83.5367 3.01875 81.766C2.17608 79.9954 1.75475 77.9047 1.75475 75.494C1.75475 73.0407 2.19742 70.9234 3.08275 69.142C3.97875 67.35 5.22675 65.9687 6.82675 64.998C8.42675 64.0274 10.2934 63.542 12.4268 63.542C13.8028 63.542 15.0561 63.7607 16.1868 64.198C17.3174 64.6354 18.2988 65.2327 19.1308 65.99C19.9734 66.7474 20.6294 67.606 21.0988 68.566C21.5788 69.5154 21.8401 70.502 21.8828 71.526H16.9548C16.8161 70.79 16.5388 70.118 16.1228 69.51C15.7174 68.902 15.1948 68.4167 14.5548 68.054C13.9148 67.6807 13.1681 67.494 12.3148 67.494C11.2908 67.494 10.3628 67.7607 9.53075 68.294C8.69875 68.8167 8.04275 69.654 7.56275 70.806C7.08275 71.958 6.84275 73.478 6.84275 75.366C6.84275 76.8914 6.99742 78.1607 7.30675 79.174C7.62675 80.1874 8.05342 80.9927 8.58675 81.59C9.12008 82.1767 9.72808 82.5927 10.4108 82.838C11.0934 83.0834 11.7921 83.206 12.5068 83.206C13.1894 83.206 13.7974 83.094 14.3308 82.87C14.8748 82.6354 15.3388 82.3367 15.7228 81.974C16.1068 81.6114 16.4108 81.2167 16.6348 80.79C16.8588 80.3527 17.0028 79.926 17.0668 79.51L17.2428 78.102H12.4588V74.87L22.1388 74.918V86.998H18.9548V83.974C18.5601 84.4967 18.0694 85.0194 17.4827 85.542C16.9068 86.054 16.1868 86.4807 15.3228 86.822C14.4694 87.1527 13.4188 87.318 12.1708 87.318ZM33.604 87.318C31.9827 87.318 30.5693 86.9714 29.364 86.278C28.1693 85.5847 27.2413 84.6034 26.58 83.334C25.9293 82.0647 25.604 80.5607 25.604 78.822C25.604 77.0834 25.9293 75.5634 26.58 74.262C27.2413 72.9607 28.1693 71.9474 29.364 71.222C30.5693 70.4967 31.988 70.134 33.62 70.134C35.252 70.134 36.6653 70.4914 37.86 71.206C39.0547 71.91 39.9773 72.9127 40.628 74.214C41.2787 75.5154 41.604 77.0514 41.604 78.822C41.604 80.486 41.284 81.958 40.644 83.238C40.0147 84.5074 39.1027 85.5047 37.908 86.23C36.724 86.9554 35.2893 87.318 33.604 87.318ZM33.62 83.846C34.4413 83.846 35.1027 83.606 35.604 83.126C36.1053 82.646 36.468 82.0167 36.692 81.238C36.9267 80.4487 37.044 79.59 37.044 78.662C37.044 77.7874 36.9373 76.9607 36.724 76.182C36.5213 75.4034 36.1693 74.774 35.668 74.294C35.1667 73.814 34.484 73.574 33.62 73.574C32.7987 73.574 32.132 73.8034 31.62 74.262C31.1187 74.71 30.7507 75.3234 30.516 76.102C30.2813 76.87 30.164 77.7234 30.164 78.662C30.164 79.526 30.2707 80.358 30.484 81.158C30.6973 81.9474 31.0547 82.5927 31.556 83.094C32.0573 83.5954 32.7453 83.846 33.62 83.846ZM56.6863 87.286C55.4703 87.286 54.5049 87.142 53.7903 86.854C53.0756 86.566 52.5476 86.1874 52.2063 85.718C51.8649 85.238 51.6463 84.71 51.5503 84.134C51.4543 83.5474 51.4062 82.9554 51.4062 82.358V63.222H55.9823V81.782C55.9823 82.39 56.1103 82.886 56.3663 83.27C56.6329 83.6434 57.1289 83.8727 57.8542 83.958L58.6383 84.006V86.886C58.3183 86.9927 57.9929 87.0834 57.6623 87.158C57.3316 87.2434 57.0063 87.286 56.6863 87.286ZM68.729 87.318C67.1077 87.318 65.6943 86.9714 64.489 86.278C63.2943 85.5847 62.3663 84.6034 61.705 83.334C61.0543 82.0647 60.729 80.5607 60.729 78.822C60.729 77.0834 61.0543 75.5634 61.705 74.262C62.3663 72.9607 63.2943 71.9474 64.489 71.222C65.6943 70.4967 67.113 70.134 68.745 70.134C70.377 70.134 71.7903 70.4914 72.985 71.206C74.1797 71.91 75.1023 72.9127 75.753 74.214C76.4037 75.5154 76.729 77.0514 76.729 78.822C76.729 80.486 76.409 81.958 75.769 83.238C75.1397 84.5074 74.2277 85.5047 73.033 86.23C71.849 86.9554 70.4143 87.318 68.729 87.318ZM68.745 83.846C69.5663 83.846 70.2277 83.606 70.729 83.126C71.2303 82.646 71.593 82.0167 71.817 81.238C72.0517 80.4487 72.169 79.59 72.169 78.662C72.169 77.7874 72.0623 76.9607 71.849 76.182C71.6463 75.4034 71.2943 74.774 70.793 74.294C70.2917 73.814 69.609 73.574 68.745 73.574C67.9237 73.574 67.257 73.8034 66.745 74.262C66.2437 74.71 65.8757 75.3234 65.641 76.102C65.4063 76.87 65.289 77.7234 65.289 78.662C65.289 79.526 65.3957 80.358 65.609 81.158C65.8223 81.9474 66.1797 82.5927 66.681 83.094C67.1823 83.5954 67.8703 83.846 68.745 83.846ZM86.9318 70.134C88.3184 70.134 89.5131 70.4167 90.5158 70.982C91.5291 71.5474 92.3238 72.31 92.8998 73.27C93.4864 74.23 93.8224 75.302 93.9078 76.486H90.0198C89.9451 76.0487 89.7904 75.6167 89.5558 75.19C89.3211 74.7527 88.9904 74.3954 88.5638 74.118C88.1371 73.83 87.6038 73.686 86.9638 73.686C85.8758 73.686 84.9904 74.1074 84.3078 74.95C83.6358 75.782 83.2998 77.0514 83.2998 78.758C83.2998 80.3687 83.6304 81.6487 84.2918 82.598C84.9531 83.5367 85.8758 84.006 87.0598 84.006C87.6891 84.006 88.2118 83.8514 88.6278 83.542C89.0544 83.2327 89.3851 82.8647 89.6198 82.438C89.8544 82.0007 90.0038 81.5954 90.0678 81.222H93.8598C93.7851 82.3634 93.4544 83.398 92.8678 84.326C92.2811 85.2434 91.4811 85.974 90.4678 86.518C89.4651 87.0514 88.2864 87.318 86.9318 87.318C85.3958 87.318 84.0251 86.9767 82.8198 86.294C81.6144 85.6114 80.6651 84.6354 79.9718 83.366C79.2891 82.086 78.9478 80.5607 78.9478 78.79C78.9478 77.0834 79.2784 75.5794 79.9398 74.278C80.6011 72.9767 81.5291 71.9634 82.7238 71.238C83.9291 70.502 85.3318 70.134 86.9318 70.134ZM101.831 87.318C100.775 87.318 99.8259 87.1207 98.9833 86.726C98.1406 86.3314 97.4739 85.7607 96.9833 85.014C96.4926 84.2567 96.2473 83.3394 96.2473 82.262C96.2473 80.4487 96.9246 79.0727 98.2793 78.134C99.6339 77.1847 101.773 76.694 104.695 76.662L106.759 76.63V75.638C106.759 74.8807 106.535 74.2994 106.087 73.894C105.65 73.478 104.967 73.2754 104.039 73.286C103.357 73.2967 102.706 73.4567 102.087 73.766C101.479 74.0754 101.063 74.614 100.839 75.382H96.9513C97.0153 74.1874 97.3619 73.206 97.9913 72.438C98.6206 71.6594 99.4739 71.0834 100.551 70.71C101.639 70.326 102.871 70.134 104.247 70.134C105.943 70.134 107.303 70.3474 108.327 70.774C109.351 71.19 110.093 71.7927 110.551 72.582C111.01 73.3607 111.239 74.2887 111.239 75.366V86.998H107.335L106.951 84.15C106.386 85.3447 105.677 86.1714 104.823 86.63C103.981 87.0887 102.983 87.318 101.831 87.318ZM103.399 84.246C103.826 84.246 104.237 84.1714 104.631 84.022C105.037 83.862 105.394 83.654 105.703 83.398C106.023 83.1314 106.279 82.8327 106.471 82.502C106.663 82.1714 106.759 81.83 106.759 81.478V79.03L105.079 79.062C104.301 79.0727 103.575 79.1687 102.903 79.35C102.231 79.5207 101.687 79.8034 101.271 80.198C100.866 80.5927 100.663 81.126 100.663 81.798C100.663 82.566 100.93 83.1687 101.463 83.606C101.997 84.0327 102.642 84.246 103.399 84.246ZM120.655 87.286C119.439 87.286 118.474 87.142 117.759 86.854C117.044 86.566 116.516 86.1874 116.175 85.718C115.834 85.238 115.615 84.71 115.519 84.134C115.423 83.5474 115.375 82.9554 115.375 82.358V63.222H119.951V81.782C119.951 82.39 120.079 82.886 120.335 83.27C120.602 83.6434 121.098 83.8727 121.823 83.958L122.607 84.006V86.886C122.287 86.9927 121.962 87.0834 121.631 87.158C121.3 87.2434 120.975 87.286 120.655 87.286Z" fill="white"/>
</svg>
