<svg width="208" height="67" viewBox="0 0 208 67" fill="none" xmlns="http://www.w3.org/2000/svg">
<path d="M96.1708 45.32C94.0481 45.32 92.2028 44.84 90.6348 43.88C89.0774 42.9093 87.8721 41.5387 87.0188 39.768C86.1761 37.9973 85.7548 35.9067 85.7548 33.496C85.7548 31.0427 86.1974 28.9253 87.0828 27.144C87.9788 25.352 89.2268 23.9707 90.8268 23C92.4268 22.0293 94.2934 21.544 96.4268 21.544C97.8028 21.544 99.0561 21.7627 100.187 22.2C101.317 22.6373 102.299 23.2347 103.131 23.992C103.973 24.7493 104.629 25.608 105.099 26.568C105.579 27.5173 105.84 28.504 105.883 29.528H100.955C100.816 28.792 100.539 28.12 100.123 27.512C99.7174 26.904 99.1948 26.4187 98.5548 26.056C97.9148 25.6827 97.1681 25.496 96.3148 25.496C95.2908 25.496 94.3628 25.7627 93.5308 26.296C92.6988 26.8187 92.0428 27.656 91.5628 28.808C91.0828 29.96 90.8428 31.48 90.8428 33.368C90.8428 34.8933 90.9974 36.1627 91.3068 37.176C91.6268 38.1893 92.0534 38.9947 92.5868 39.592C93.1201 40.1787 93.7281 40.5947 94.4108 40.84C95.0934 41.0853 95.7921 41.208 96.5068 41.208C97.1894 41.208 97.7974 41.096 98.3308 40.872C98.8748 40.6373 99.3388 40.3387 99.7228 39.976C100.107 39.6133 100.411 39.2187 100.635 38.792C100.859 38.3547 101.003 37.928 101.067 37.512L101.243 36.104H96.4588V32.872L106.139 32.92V45H102.955V41.976C102.56 42.4987 102.069 43.0213 101.483 43.544C100.907 44.056 100.187 44.4827 99.3228 44.824C98.4694 45.1547 97.4188 45.32 96.1708 45.32ZM117.604 45.32C115.983 45.32 114.569 44.9733 113.364 44.28C112.169 43.5867 111.241 42.6053 110.58 41.336C109.929 40.0667 109.604 38.5627 109.604 36.824C109.604 35.0853 109.929 33.5653 110.58 32.264C111.241 30.9627 112.169 29.9493 113.364 29.224C114.569 28.4987 115.988 28.136 117.62 28.136C119.252 28.136 120.665 28.4933 121.86 29.208C123.055 29.912 123.977 30.9147 124.628 32.216C125.279 33.5173 125.604 35.0533 125.604 36.824C125.604 38.488 125.284 39.96 124.644 41.24C124.015 42.5093 123.103 43.5067 121.908 44.232C120.724 44.9573 119.289 45.32 117.604 45.32ZM117.62 41.848C118.441 41.848 119.103 41.608 119.604 41.128C120.105 40.648 120.468 40.0187 120.692 39.24C120.927 38.4507 121.044 37.592 121.044 36.664C121.044 35.7893 120.937 34.9627 120.724 34.184C120.521 33.4053 120.169 32.776 119.668 32.296C119.167 31.816 118.484 31.576 117.62 31.576C116.799 31.576 116.132 31.8053 115.62 32.264C115.119 32.712 114.751 33.3253 114.516 34.104C114.281 34.872 114.164 35.7253 114.164 36.664C114.164 37.528 114.271 38.36 114.484 39.16C114.697 39.9493 115.055 40.5947 115.556 41.096C116.057 41.5973 116.745 41.848 117.62 41.848ZM140.686 45.288C139.47 45.288 138.505 45.144 137.79 44.856C137.076 44.568 136.548 44.1893 136.206 43.72C135.865 43.24 135.646 42.712 135.55 42.136C135.454 41.5493 135.406 40.9573 135.406 40.36V21.224H139.982V39.784C139.982 40.392 140.11 40.888 140.366 41.272C140.633 41.6453 141.129 41.8747 141.854 41.96L142.638 42.008V44.888C142.318 44.9947 141.993 45.0853 141.662 45.16C141.332 45.2453 141.006 45.288 140.686 45.288ZM152.729 45.32C151.108 45.32 149.694 44.9733 148.489 44.28C147.294 43.5867 146.366 42.6053 145.705 41.336C145.054 40.0667 144.729 38.5627 144.729 36.824C144.729 35.0853 145.054 33.5653 145.705 32.264C146.366 30.9627 147.294 29.9493 148.489 29.224C149.694 28.4987 151.113 28.136 152.745 28.136C154.377 28.136 155.79 28.4933 156.985 29.208C158.18 29.912 159.102 30.9147 159.753 32.216C160.404 33.5173 160.729 35.0533 160.729 36.824C160.729 38.488 160.409 39.96 159.769 41.24C159.14 42.5093 158.228 43.5067 157.033 44.232C155.849 44.9573 154.414 45.32 152.729 45.32ZM152.745 41.848C153.566 41.848 154.228 41.608 154.729 41.128C155.23 40.648 155.593 40.0187 155.817 39.24C156.052 38.4507 156.169 37.592 156.169 36.664C156.169 35.7893 156.062 34.9627 155.849 34.184C155.646 33.4053 155.294 32.776 154.793 32.296C154.292 31.816 153.609 31.576 152.745 31.576C151.924 31.576 151.257 31.8053 150.745 32.264C150.244 32.712 149.876 33.3253 149.641 34.104C149.406 34.872 149.289 35.7253 149.289 36.664C149.289 37.528 149.396 38.36 149.609 39.16C149.822 39.9493 150.18 40.5947 150.681 41.096C151.182 41.5973 151.87 41.848 152.745 41.848ZM170.932 28.136C172.318 28.136 173.513 28.4187 174.516 28.984C175.529 29.5493 176.324 30.312 176.9 31.272C177.486 32.232 177.822 33.304 177.908 34.488H174.02C173.945 34.0507 173.79 33.6187 173.556 33.192C173.321 32.7547 172.99 32.3973 172.564 32.12C172.137 31.832 171.604 31.688 170.964 31.688C169.876 31.688 168.99 32.1093 168.308 32.952C167.636 33.784 167.3 35.0533 167.3 36.76C167.3 38.3707 167.63 39.6507 168.292 40.6C168.953 41.5387 169.876 42.008 171.06 42.008C171.689 42.008 172.212 41.8533 172.628 41.544C173.054 41.2347 173.385 40.8667 173.62 40.44C173.854 40.0027 174.004 39.5973 174.068 39.224H177.86C177.785 40.3653 177.454 41.4 176.868 42.328C176.281 43.2453 175.481 43.976 174.468 44.52C173.465 45.0533 172.286 45.32 170.932 45.32C169.396 45.32 168.025 44.9787 166.82 44.296C165.614 43.6133 164.665 42.6373 163.972 41.368C163.289 40.088 162.948 38.5627 162.948 36.792C162.948 35.0853 163.278 33.5813 163.94 32.28C164.601 30.9787 165.529 29.9653 166.724 29.24C167.929 28.504 169.332 28.136 170.932 28.136ZM185.831 45.32C184.775 45.32 183.826 45.1227 182.983 44.728C182.141 44.3333 181.474 43.7627 180.983 43.016C180.493 42.2587 180.247 41.3413 180.247 40.264C180.247 38.4507 180.925 37.0747 182.279 36.136C183.634 35.1867 185.773 34.696 188.695 34.664L190.759 34.632V33.64C190.759 32.8827 190.535 32.3013 190.087 31.896C189.65 31.48 188.967 31.2773 188.039 31.288C187.357 31.2987 186.706 31.4587 186.087 31.768C185.479 32.0773 185.063 32.616 184.839 33.384H180.951C181.015 32.1893 181.362 31.208 181.991 30.44C182.621 29.6613 183.474 29.0853 184.551 28.712C185.639 28.328 186.871 28.136 188.247 28.136C189.943 28.136 191.303 28.3493 192.327 28.776C193.351 29.192 194.093 29.7947 194.551 30.584C195.01 31.3627 195.239 32.2907 195.239 33.368V45H191.335L190.951 42.152C190.386 43.3467 189.677 44.1733 188.823 44.632C187.981 45.0907 186.983 45.32 185.831 45.32ZM187.399 42.248C187.826 42.248 188.237 42.1733 188.631 42.024C189.037 41.864 189.394 41.656 189.703 41.4C190.023 41.1333 190.279 40.8347 190.471 40.504C190.663 40.1733 190.759 39.832 190.759 39.48V37.032L189.079 37.064C188.301 37.0747 187.575 37.1707 186.903 37.352C186.231 37.5227 185.687 37.8053 185.271 38.2C184.866 38.5947 184.663 39.128 184.663 39.8C184.663 40.568 184.93 41.1707 185.463 41.608C185.997 42.0347 186.642 42.248 187.399 42.248ZM204.655 45.288C203.439 45.288 202.474 45.144 201.759 44.856C201.044 44.568 200.516 44.1893 200.175 43.72C199.834 43.24 199.615 42.712 199.519 42.136C199.423 41.5493 199.375 40.9573 199.375 40.36V21.224H203.951V39.784C203.951 40.392 204.079 40.888 204.335 41.272C204.602 41.6453 205.098 41.8747 205.823 41.96L206.607 42.008V44.888C206.287 44.9947 205.962 45.0853 205.631 45.16C205.3 45.2453 204.975 45.288 204.655 45.288Z" fill="#CD4754"/>
<path fill-rule="evenodd" clip-rule="evenodd" d="M40.5 47C41.9146 45.17 44.0214 42.2938 45.6852 40H35.5C34.1193 40 33 38.8807 33 37.5C33 36.1193 34.1193 35 35.5 35H46H48.8219H55.2813H56V40V55.5C56 56.8807 54.8807 58 53.5 58C52.1193 58 51 56.8807 51 55.5V43.492C46.2038 51.4469 39.8743 58.6247 36.0691 62.6388C34.2411 64.5672 31.2589 64.5672 29.4309 62.6388C22.6837 55.5211 8 38.4567 8 24.75C8 18.1859 10.6076 11.8906 15.2491 7.24911C19.8906 2.60758 26.1859 0 32.75 0C39.3141 0 45.6094 2.60758 50.2509 7.24911C52.3894 9.38765 54.0962 11.8773 55.3151 14.5825C55.2166 15.5718 54.7971 16.5165 54.0991 17.2609L54.0214 17.3438C53.9239 17.4478 53.8191 17.5447 53.7078 17.6337L53.4077 17.8738C52.5694 18.5445 51.3933 18.5955 50.5 18L49.0081 16.9156C48.1911 15.4684 47.1701 14.1265 45.9636 12.9337C42.5255 9.53459 37.8623 7.625 33 7.625C28.1377 7.625 23.4745 9.53459 20.0364 12.9337C16.5982 16.3328 15.5 20.943 15.5 25.75C15.5 28.8748 17.5567 34.1104 19.5 38C21.1366 41.2792 22.7698 43.3662 24.8632 46.0411C25.2274 46.5065 25.6055 46.9897 26 47.5C29.9263 52.5482 36.2223 52.6589 40.0753 47.5545C40.2157 47.3685 40.3572 47.1836 40.5 47Z" fill="#CD4754"/>
</svg>
